<mxfile host="app.diagrams.net" modified="2022-04-08T01:23:39.435Z" agent="5.0 (Macintosh; Intel Mac OS X 10_15_7) AppleWebKit/537.36 (KHTML, like Gecko) Chrome/100.0.4896.75 Safari/537.36" etag="paiPCwSwSs3aIMcZabsl" version="17.4.1" type="github">
  <diagram id="cCcrtTG4YtZ3M-jrRKzi" name="Page-1">
    <mxGraphModel dx="1186" dy="796" grid="1" gridSize="10" guides="1" tooltips="1" connect="1" arrows="1" fold="1" page="1" pageScale="1" pageWidth="1654" pageHeight="2336" math="0" shadow="0">
      <root>
        <mxCell id="0" />
        <mxCell id="1" parent="0" />
        <mxCell id="6nuq8oYSrlDfX3I86kUc-1" value="后台" style="rounded=1;whiteSpace=wrap;html=1;" vertex="1" parent="1">
          <mxGeometry x="740" y="20" width="100" height="40" as="geometry" />
        </mxCell>
        <mxCell id="6nuq8oYSrlDfX3I86kUc-4" value="" style="endArrow=classic;html=1;rounded=0;" edge="1" parent="1">
          <mxGeometry width="50" height="50" relative="1" as="geometry">
            <mxPoint x="789.5" y="60" as="sourcePoint" />
            <mxPoint x="790" y="120" as="targetPoint" />
            <Array as="points">
              <mxPoint x="789.5" y="100" />
            </Array>
          </mxGeometry>
        </mxCell>
        <mxCell id="6nuq8oYSrlDfX3I86kUc-5" value="创建兑换物品" style="rounded=0;whiteSpace=wrap;html=1;" vertex="1" parent="1">
          <mxGeometry x="730" y="120" width="120" height="40" as="geometry" />
        </mxCell>
        <mxCell id="6nuq8oYSrlDfX3I86kUc-7" value="" style="endArrow=classic;html=1;rounded=0;" edge="1" parent="1">
          <mxGeometry width="50" height="50" relative="1" as="geometry">
            <mxPoint x="789.5" y="160" as="sourcePoint" />
            <mxPoint x="790" y="220" as="targetPoint" />
            <Array as="points">
              <mxPoint x="789.5" y="200" />
            </Array>
          </mxGeometry>
        </mxCell>
        <mxCell id="6nuq8oYSrlDfX3I86kUc-8" value="设置积分" style="rounded=0;whiteSpace=wrap;html=1;" vertex="1" parent="1">
          <mxGeometry x="730" y="220" width="120" height="40" as="geometry" />
        </mxCell>
      </root>
    </mxGraphModel>
  </diagram>
</mxfile>
